<?xml version="1.0" standalone="no"?>
<!DOCTYPE svg PUBLIC "-//W3C//DTD SVG 20010904//EN"
 "http://www.w3.org/TR/2001/REC-SVG-20010904/DTD/svg10.dtd">
<svg version="1.0" xmlns="http://www.w3.org/2000/svg"
 width="1024.000000pt" height="1024.000000pt" viewBox="0 0 1024.000000 1024.000000"
 preserveAspectRatio="xMidYMid meet">

<g transform="translate(0.000000,1024.000000) scale(0.100000,-0.100000)"
fill="#000000" stroke="none">
<path d="M1661 10188 c-45 -61 -66 -101 -116 -222 -67 -163 -78 -220 -79 -421
-1 -157 2 -190 22 -262 12 -46 35 -105 51 -131 16 -27 32 -59 35 -70 10 -31
163 -179 216 -210 25 -14 52 -31 60 -37 19 -14 205 -95 231 -100 10 -2 23 -7
29 -10 5 -3 31 -8 57 -11 58 -6 70 -16 55 -46 -6 -13 -25 -59 -43 -103 -18
-44 -35 -84 -39 -90 -10 -12 -27 -70 -46 -155 -8 -36 -17 -73 -20 -82 -13 -54
-16 -64 -18 -78 -1 -8 -8 -35 -15 -60 -15 -52 -16 -58 -37 -245 -19 -175 -12
-356 20 -530 38 -207 128 -477 196 -592 11 -19 20 -40 20 -46 0 -7 28 -55 61
-107 34 -52 64 -102 67 -110 10 -28 91 -145 136 -198 25 -30 46 -58 46 -62 0
-5 27 -38 61 -72 33 -35 76 -84 95 -110 19 -26 48 -58 64 -71 25 -22 53 -70
66 -117 8 -29 33 -136 45 -195 7 -33 14 -64 15 -70 1 -5 21 -73 44 -150 23
-77 43 -149 45 -160 3 -11 11 -43 20 -70 19 -65 19 -129 0 -145 -8 -7 -15 -18
-15 -25 0 -7 -16 -37 -36 -66 -20 -30 -51 -83 -70 -119 -18 -36 -40 -76 -48
-90 -9 -14 -29 -52 -45 -85 -16 -33 -40 -82 -54 -110 -14 -27 -43 -90 -63
-140 -21 -49 -47 -106 -59 -125 -26 -41 -57 -109 -91 -200 -14 -35 -31 -71
-38 -80 -18 -22 -96 -208 -106 -255 -5 -22 -18 -67 -30 -100 -11 -33 -24 -82
-28 -110 -9 -64 -9 -201 0 -240 4 -16 10 -48 14 -70 4 -22 14 -53 22 -69 8
-17 22 -52 31 -79 19 -54 115 -177 175 -223 128 -97 192 -135 272 -160 49 -15
89 -34 94 -44 6 -11 4 -36 -4 -71 -7 -30 -19 -92 -26 -139 -13 -88 -28 -164
-38 -190 -3 -8 -6 -17 -6 -20 -1 -3 -15 -47 -31 -98 l-29 -92 -100 -50 c-192
-96 -233 -120 -297 -176 -35 -31 -81 -68 -101 -82 -20 -15 -39 -34 -41 -43 -4
-14 -92 -91 -115 -101 -4 -1 -28 -29 -52 -61 -42 -57 -76 -85 -88 -73 -7 7 -5
56 4 114 8 54 -12 129 -38 143 -43 23 -79 -11 -159 -147 -38 -67 -46 -71 -54
-34 -9 42 -67 139 -105 175 -26 25 -32 27 -58 16 -24 -10 -36 -27 -61 -91 -17
-44 -31 -86 -31 -95 0 -9 -5 -36 -11 -60 -12 -49 -40 -65 -108 -65 -44 1 -70
15 -106 58 -40 48 -49 42 -40 -30 11 -92 10 -143 -5 -236 -11 -69 -16 -82 -29
-76 -9 4 -35 9 -58 12 l-43 4 0 -43 c0 -63 37 -209 61 -242 19 -26 19 -30 5
-72 -15 -43 -15 -48 20 -167 19 -68 53 -167 74 -222 22 -54 40 -100 40 -102 0
-2 -272 -5 -604 -6 -591 -3 -605 -3 -632 -23 -35 -27 -35 -35 6 -63 l33 -22
632 0 631 0 30 -33 c17 -17 38 -45 48 -60 9 -15 28 -32 42 -37 26 -10 31 -29
12 -48 -9 -9 158 -12 751 -12 l763 0 80 45 c44 25 81 45 83 45 4 0 106 68 121
81 13 10 2520 10 3754 0 l755 -6 125 -64 c209 -107 159 -101 882 -101 l628 0
0 80 0 80 100 0 c77 0 107 4 126 17 26 17 83 19 225 7 74 -6 87 2 91 54 1 19
-5 39 -17 52 -18 19 -28 21 -117 18 -102 -3 -110 0 -89 40 6 9 19 46 31 81 12
35 27 76 35 92 41 78 83 247 101 409 7 60 21 82 63 100 30 12 61 57 61 88 0
10 -11 31 -25 46 -19 20 -33 26 -67 26 -24 0 -54 -7 -66 -16 -13 -9 -25 -14
-27 -13 -2 2 1 27 6 54 6 28 12 64 14 80 1 17 4 35 5 40 6 28 -2 75 -16 89
-14 15 -18 14 -48 -9 -18 -14 -35 -25 -37 -25 -2 0 -4 51 -4 114 0 98 -3 117
-19 135 -11 12 -27 21 -36 21 -18 0 -27 -17 -55 -110 -10 -30 -21 -59 -25 -63
-15 -17 -51 110 -65 226 -8 71 -31 100 -78 95 -30 -3 -32 -5 -31 -43 1 -22 5
-64 9 -92 7 -50 6 -53 -16 -62 -13 -5 -27 -7 -30 -5 -3 2 -12 38 -19 81 -16
103 -22 113 -68 113 -50 0 -67 -12 -58 -41 4 -13 10 -50 13 -81 10 -104 -26
-60 -41 50 -7 48 -65 142 -103 168 -46 29 -86 12 -147 -64 -47 -59 -103 -152
-96 -160 1 -2 -3 -16 -10 -32 -21 -52 -60 -34 -133 60 -26 33 -66 72 -89 86
-24 15 -56 41 -72 57 -70 69 -288 179 -383 192 -12 2 -27 6 -33 10 -6 4 -34 9
-63 12 -29 3 -55 8 -59 12 -7 6 -10 39 -23 231 -6 98 -12 148 -20 190 -3 14
-8 41 -11 60 -5 29 -22 116 -40 205 -2 11 -7 45 -10 76 -6 53 -5 56 17 62 13
4 44 7 69 7 25 0 63 5 85 10 22 5 52 11 68 14 70 12 192 61 235 94 18 13 50
34 71 46 54 30 72 46 105 91 17 22 39 50 50 61 41 44 94 146 111 211 9 38 20
75 23 83 8 24 13 42 18 80 3 19 10 51 15 70 14 53 11 201 -5 253 -8 26 -13 47
-11 47 2 0 -7 32 -21 72 -13 39 -24 78 -24 85 0 18 -95 177 -116 194 -8 7 -28
41 -44 75 -16 34 -33 64 -38 66 -9 3 -101 129 -177 242 -22 32 -48 64 -58 70
-10 6 -31 34 -47 61 -16 28 -54 76 -84 108 -31 32 -56 61 -56 65 0 5 -23 33
-51 63 -27 29 -68 77 -89 104 -21 28 -57 64 -79 80 -22 17 -55 50 -73 74 -18
24 -59 63 -90 87 -31 24 -74 61 -95 83 -21 21 -65 56 -98 77 -58 37 -166 112
-193 135 -8 6 -50 27 -95 45 -44 19 -85 38 -90 43 -14 14 15 55 92 131 103
102 231 238 231 247 0 5 14 24 32 43 46 50 93 112 142 189 24 36 55 80 70 96
14 17 51 80 82 140 31 61 68 133 83 160 34 65 59 127 76 190 8 28 30 95 50
150 20 55 40 124 45 155 5 30 12 71 16 90 10 44 12 537 2 605 -15 108 -27 162
-46 212 -11 29 -17 54 -14 57 2 3 -1 12 -8 21 -7 8 -10 15 -6 15 4 0 0 14 -9
30 -9 17 -20 53 -25 82 -6 28 -30 95 -55 149 -49 107 -51 115 -32 116 6 1 55
12 107 27 103 28 262 104 350 168 102 75 229 220 251 287 6 20 16 42 22 49 5
6 6 12 2 12 -4 0 0 12 10 26 9 15 18 36 20 48 1 11 10 50 19 85 32 118 11 364
-42 511 -11 30 -28 80 -37 110 -17 57 -67 147 -118 213 l-29 37 -475 0 -476 0
-62 -35 c-34 -18 -66 -43 -71 -53 -9 -20 -53 -75 -110 -141 -18 -20 -48 -63
-69 -96 l-37 -60 5 70 c2 39 12 93 22 121 20 62 105 161 126 149 8 -5 11 -5 7
0 -10 11 39 36 56 29 8 -3 17 -1 21 5 4 8 -31 11 -114 11 l-120 0 -25 -32
c-76 -102 -107 -193 -131 -382 -2 -21 -7 -41 -10 -44 -8 -8 -73 27 -110 59
-16 15 -57 41 -90 60 -33 18 -81 47 -106 63 -126 84 -217 136 -238 136 -8 0
-35 13 -60 30 -26 16 -86 47 -134 70 l-87 40 -168 -1 c-92 0 -160 -3 -152 -6
62 -22 253 -98 286 -114 22 -10 46 -19 53 -19 13 0 140 -67 204 -107 20 -13
59 -32 85 -42 27 -11 99 -53 160 -95 62 -42 115 -76 119 -76 11 0 93 -60 128
-93 17 -16 49 -39 72 -53 43 -26 403 -377 403 -393 0 -6 32 -47 71 -93 39 -46
78 -97 86 -115 9 -17 26 -37 39 -44 31 -16 94 -108 94 -135 0 -12 7 -27 15
-34 25 -20 139 -232 157 -290 9 -30 26 -80 38 -110 30 -77 89 -256 101 -310
18 -79 39 -301 39 -421 0 -133 -14 -289 -36 -399 -14 -71 -59 -213 -74 -235
-4 -5 -11 -21 -15 -35 -29 -101 -93 -240 -157 -341 -26 -42 -48 -83 -48 -92 0
-10 -8 -25 -17 -35 -33 -34 -83 -100 -94 -126 -7 -14 -16 -26 -20 -26 -4 0
-21 -23 -39 -51 -17 -28 -57 -77 -88 -109 -31 -33 -75 -83 -97 -114 -22 -30
-51 -61 -65 -69 -14 -9 -38 -33 -54 -54 -16 -21 -53 -58 -83 -82 -29 -24 -66
-61 -81 -81 -14 -21 -48 -53 -75 -71 -27 -19 -57 -43 -68 -54 -11 -11 -34 -35
-52 -53 -18 -18 -48 -42 -67 -54 -19 -12 -37 -24 -40 -27 -3 -4 -32 -24 -65
-46 -33 -22 -79 -55 -103 -72 -44 -33 -65 -38 -119 -27 -27 5 -32 12 -43 62
-7 32 -21 94 -32 139 -10 46 -16 87 -13 93 3 5 2 10 -4 10 -9 0 -17 17 -26 59
-3 12 -7 29 -9 39 -2 9 -12 42 -21 72 -10 30 -23 73 -30 95 -7 22 -17 63 -23
90 -18 78 -32 134 -53 210 -11 39 -28 106 -39 150 -27 107 -56 168 -90 188
-20 12 -51 17 -104 17 -42 0 -76 3 -76 8 0 4 24 39 53 78 28 39 66 102 83 140
36 79 84 228 90 282 3 20 7 48 10 62 3 14 8 81 11 149 l6 123 43 49 c49 56 74
98 74 129 0 42 -40 20 -140 -77 -54 -54 -119 -113 -143 -131 -25 -18 -57 -44
-71 -57 -15 -14 -39 -28 -54 -32 -15 -3 -52 -20 -82 -36 -84 -45 -184 -74
-300 -86 -194 -21 -305 5 -370 85 -19 24 -43 44 -52 44 -9 0 -33 -17 -53 -39
-73 -78 -183 -114 -344 -110 -137 2 -247 35 -372 110 -36 21 -70 39 -77 39 -6
0 -46 32 -89 70 -43 39 -90 76 -105 83 -16 6 -28 16 -28 22 0 5 -19 29 -42 52
-33 34 -49 43 -75 43 -37 0 -53 -22 -36 -49 5 -9 38 -35 73 -58 34 -23 67 -47
71 -55 5 -7 9 -54 9 -104 0 -94 24 -293 39 -322 4 -10 14 -39 20 -67 7 -27 25
-72 41 -100 15 -27 33 -66 39 -85 15 -47 128 -175 205 -231 21 -16 35 -29 30
-30 -5 0 -316 0 -690 1 -499 1 -698 -2 -743 -11 -55 -11 -68 -18 -130 -78 -78
-74 -94 -110 -94 -219 0 -48 -3 -59 -10 -45 -6 10 -34 44 -62 75 -141 152
-353 520 -418 724 -98 304 -110 369 -115 630 -3 159 0 238 12 320 20 134 97
425 137 519 17 39 32 75 33 80 1 6 18 42 38 80 20 39 41 89 47 112 6 22 41 85
78 139 36 55 77 120 90 147 13 26 34 57 46 70 12 12 43 51 68 87 77 111 299
341 405 420 28 21 72 56 97 79 26 22 69 50 95 61 26 12 58 31 72 44 14 13 48
36 75 51 28 16 57 34 65 40 27 21 272 145 287 145 8 0 28 11 45 25 16 14 42
28 56 32 15 3 68 24 117 46 108 47 218 87 242 87 10 0 25 5 33 10 27 18 -306
6 -370 -13 -93 -28 -420 -197 -524 -272 -22 -16 -69 -44 -103 -62 -72 -39 -76
-36 -86 57 -6 61 -35 154 -74 243 l-26 57 -556 0 c-305 -1 -550 -5 -543 -9 10
-6 3 -19 -27 -49 -23 -23 -41 -44 -41 -46 0 -15 -65 -95 -69 -85 -2 6 3 15 10
20 11 7 10 11 -6 22 -10 8 -26 12 -35 8 -11 -4 -10 -7 8 -9 12 -2 22 -8 22
-13 0 -6 -9 -7 -22 -3 -21 6 -21 6 -5 -10 21 -21 23 -50 3 -43 -10 4 -12 0 -9
-14 4 -16 1 -20 -12 -17 -10 2 -20 -4 -22 -12 -4 -13 -3 -13 7 0 10 13 11 12
6 -3 -3 -10 -6 -21 -6 -23 0 -2 -7 -4 -15 -4 -8 0 -15 -9 -15 -21 0 -16 -4
-19 -20 -14 -11 4 -20 2 -20 -4 0 -6 5 -11 10 -11 24 0 7 -20 -17 -21 -24 -2
-25 -2 -5 -6 12 -2 22 -6 22 -8 0 -13 -55 -113 -60 -110 -3 2 -7 -11 -7 -30
-2 -53 -15 -64 -30 -24 -7 19 -11 23 -8 9 16 -73 17 -85 6 -70 -9 12 -10 10
-6 -11 4 -17 1 -30 -9 -38 -14 -12 -16 -8 -16 36 0 27 3 53 7 57 4 4 6 28 5
54 -2 37 0 43 8 29 14 -22 30 -13 29 16 -1 21 -2 20 -9 -3 -7 -20 -8 -17 -7
17 2 44 12 57 20 26 4 -15 5 -14 6 3 0 11 6 25 12 31 8 8 8 13 0 17 -6 4 -11
0 -11 -8 0 -9 -4 -16 -10 -16 -11 0 7 47 29 73 8 9 15 28 15 40 2 23 55 101
64 92 3 -3 -3 -14 -13 -25 -10 -11 -15 -23 -12 -27 4 -3 7 -1 7 5 0 7 6 12 13
12 14 0 40 73 27 78 -16 6 3 36 52 85 26 26 48 49 48 52 0 3 -36 5 -80 5 l-79
0 -40 -52z m860 -249 c27 -12 49 -25 49 -30 0 -5 6 -9 14 -9 22 0 74 -60 101
-115 16 -33 30 -88 39 -163 8 -62 17 -116 20 -121 6 -9 -23 -50 -71 -102 -92
-100 -134 -150 -173 -211 -41 -63 -65 -80 -84 -60 -4 4 -12 7 -17 7 -10 0 -74
52 -129 105 -72 69 -117 266 -91 391 33 153 96 245 205 299 71 36 74 36 137 9z
m5246 -51 c65 -16 151 -102 189 -188 27 -59 29 -75 29 -180 0 -110 -2 -118
-34 -185 -65 -135 -92 -172 -141 -193 -70 -31 -96 -34 -137 -17 -40 17 -94 71
-119 120 -9 17 -31 46 -50 65 -52 54 -93 105 -108 135 -15 29 -14 54 10 175
23 114 29 123 141 233 47 45 128 59 220 35z m-2655 -2667 c93 -59 133 -71 238
-71 53 0 111 5 128 11 17 6 45 9 64 7 l33 -4 -40 -19 c-22 -11 -41 -23 -43
-27 -9 -19 -77 -49 -167 -74 -90 -25 -114 -28 -250 -27 -139 1 -159 4 -276 37
-74 20 -153 50 -190 71 -35 20 -55 34 -44 31 158 -38 292 -19 440 64 28 15 52
28 56 29 3 0 26 -12 51 -28z m-272 -550 c47 -11 109 -29 138 -41 65 -25 120
-26 180 -1 39 16 121 33 272 55 40 6 73 -18 104 -75 16 -30 32 -56 37 -59 14
-10 -165 -79 -259 -100 -113 -25 -318 -27 -446 -5 -111 19 -336 97 -336 116 0
5 19 21 42 36 24 16 65 45 93 66 32 24 57 36 70 33 11 -3 58 -14 105 -25z
m1125 -81 c3 -5 1 -10 -4 -10 -6 0 -11 5 -11 10 0 6 2 10 4 10 3 0 8 -4 11
-10z m23 -24 c26 -6 32 -12 27 -27 -4 -11 -2 -19 4 -19 6 0 12 10 12 23 1 18
2 18 6 4 3 -12 11 -16 21 -13 13 5 12 2 -2 -9 -11 -8 -30 -15 -43 -15 -12 0
-33 -11 -45 -25 -15 -16 -50 -33 -93 -45 -101 -29 -105 -28 -105 23 0 24 -5
48 -10 53 -14 14 7 32 55 48 38 13 121 14 173 2z m-279 -173 c12 -43 31 -107
41 -143 11 -36 22 -81 26 -100 3 -19 14 -62 24 -95 10 -33 28 -96 40 -140 12
-44 31 -107 41 -141 10 -33 19 -70 19 -82 0 -12 11 -56 25 -98 14 -42 25 -80
25 -84 0 -8 -40 -19 -170 -45 -133 -28 -392 -39 -612 -28 -114 6 -215 16 -224
21 -19 11 -96 228 -149 422 -19 69 -55 188 -80 265 -67 204 -77 237 -70 243 3
3 31 -3 63 -13 55 -17 95 -28 157 -43 17 -4 111 -7 210 -7 158 0 191 3 265 24
47 13 90 24 95 26 6 1 22 7 37 13 15 6 51 18 80 27 29 8 67 24 83 35 17 11 35
20 41 20 6 0 21 -35 33 -77z m371 -16 c0 -12 10 -56 21 -97 12 -41 23 -84 25
-95 13 -70 16 -96 18 -150 4 -107 5 -117 18 -109 8 5 9 2 5 -9 -4 -11 -1 -17
8 -17 8 0 15 -8 15 -17 0 -15 -2 -16 -10 -3 -5 8 -10 13 -11 10 -5 -28 -4 -52
3 -56 4 -3 8 0 8 7 0 17 13 2 16 -19 7 -48 27 -112 34 -112 5 0 7 24 5 53 -4
41 -1 35 11 -28 8 -44 26 -121 40 -170 13 -50 24 -93 24 -96 0 -3 -54 -6 -121
-7 -84 0 -121 3 -123 11 -4 14 -44 143 -81 260 -13 43 -24 81 -23 85 1 4 -1
14 -5 22 -3 8 -12 44 -21 80 -48 209 -68 287 -77 304 -6 10 -17 35 -24 56
l-13 37 101 34 c56 18 106 37 112 41 19 17 45 8 45 -15z m-1788 7 l44 -6 13
-60 c9 -45 21 -68 45 -93 32 -32 73 -138 95 -247 9 -47 45 -173 86 -308 30
-97 51 -170 93 -325 47 -173 69 -244 103 -330 17 -44 39 -116 49 -160 21 -92
49 -186 60 -200 4 -5 13 -28 20 -50 7 -22 16 -44 20 -50 4 -5 20 -59 35 -120
66 -275 75 -307 141 -511 18 -55 40 -145 49 -200 11 -68 24 -110 41 -135 13
-19 24 -40 24 -47 0 -6 9 -29 21 -51 18 -35 63 -200 57 -207 -2 -1 -109 -4
-240 -6 -155 -2 -234 0 -230 7 35 59 44 65 108 65 85 0 137 28 173 95 25 48
26 63 5 94 -10 13 -18 40 -20 59 -1 19 -12 47 -23 61 -36 44 -44 73 -46 151 0
52 -7 86 -19 109 -22 41 -54 70 -78 71 -9 0 -19 4 -22 9 -6 8 39 76 76 116 15
15 18 29 13 59 -10 66 -32 96 -90 122 -59 27 -60 30 -70 119 -5 45 -15 72 -40
110 -49 71 -101 109 -246 181 -109 54 -193 73 -344 78 -232 7 -369 -24 -517
-117 -29 -18 -66 -39 -82 -45 -16 -7 -58 -44 -92 -81 -35 -38 -78 -74 -96 -81
-18 -7 -40 -19 -49 -27 -14 -11 -18 -4 -39 65 -12 42 -31 104 -41 137 -10 33
-21 78 -25 100 -4 22 -11 45 -15 51 -5 6 -13 31 -19 55 -41 190 -92 382 -115
434 -22 48 -65 186 -76 240 -5 28 -12 59 -14 70 -3 11 -11 49 -19 85 -7 36
-22 92 -33 125 -11 33 -23 76 -27 95 -4 19 -11 44 -17 55 -9 19 -43 131 -56
183 -5 21 -3 22 55 22 33 0 74 -3 91 -6 l32 -7 -5 -87 c-4 -100 -1 -104 73
-90 23 4 44 3 47 -1 3 -5 10 -9 16 -9 14 0 2 108 -13 127 -6 7 -13 38 -14 69
-2 31 -8 61 -13 66 -5 5 -33 8 -63 6 -45 -2 -54 -6 -51 -20 3 -21 -2 -22 -30
-7 -16 9 -35 8 -75 -1 -30 -6 -57 -9 -60 -7 -14 15 -14 125 0 159 l16 38 673
3 c370 1 680 3 689 5 9 1 36 -1 61 -4z m248 -74 c0 -5 -2 -10 -4 -10 -3 0 -8
5 -11 10 -3 6 -1 10 4 10 6 0 11 -4 11 -10z m35 -81 c11 -16 1 -19 -13 -3 -7
8 -8 14 -3 14 5 0 13 -5 16 -11z m1181 -882 c-10 -7 -30 -25 -45 -40 -14 -15
-40 -42 -57 -60 -17 -18 -36 -53 -42 -77 -19 -75 -27 -81 -129 -91 -51 -5
-173 -8 -273 -7 l-182 3 -14 42 c-8 23 -22 82 -32 132 l-18 91 45 -5 c25 -3
153 -8 285 -12 230 -6 374 3 431 27 32 14 54 11 31 -3z m-230 -530 c1 -115 6
-157 25 -222 12 -44 23 -102 23 -130 l1 -50 -90 -3 c-118 -4 -255 14 -271 35
-13 19 -68 194 -83 268 -6 28 -18 83 -26 124 -9 41 -21 83 -27 94 -10 20 -8
20 98 14 60 -3 152 -2 204 2 52 4 106 9 120 9 l25 2 1 -143z m128 -544 c28
-75 58 -147 66 -158 5 -6 27 -61 51 -123 35 -94 54 -128 109 -198 68 -86 102
-114 193 -162 45 -23 64 -27 142 -27 75 0 98 4 138 24 53 26 42 29 129 -42 45
-36 47 -40 53 -105 8 -75 47 -185 78 -220 22 -23 102 -52 146 -52 54 0 102 22
147 66 l45 45 50 -43 c28 -24 68 -54 89 -68 22 -14 65 -43 97 -65 82 -57 219
-120 413 -189 58 -20 199 -56 221 -56 13 0 20 -13 28 -52 5 -29 19 -100 30
-158 50 -252 77 -481 69 -575 -3 -36 -6 -40 -33 -41 -221 -14 -286 -29 -432
-100 -54 -26 -125 -69 -158 -94 -73 -57 -265 -241 -265 -255 0 -6 -24 -36 -54
-67 -29 -32 -82 -99 -117 -150 -34 -51 -80 -114 -101 -140 -21 -26 -46 -68
-55 -95 -9 -26 -27 -61 -40 -77 -13 -16 -33 -47 -45 -70 -11 -22 -28 -50 -38
-61 -10 -11 -26 -44 -35 -73 -10 -29 -30 -69 -45 -90 -35 -49 -120 -210 -120
-228 0 -24 -62 -137 -124 -224 l-38 -55 -592 2 c-325 1 -637 3 -693 3 l-103 0
0 30 c0 21 -8 35 -26 47 -35 22 -58 7 -62 -41 l-3 -36 -78 0 c-89 0 -102 7
-129 70 -10 25 -36 81 -56 125 -20 45 -36 84 -36 89 0 13 -98 205 -120 237
-12 16 -30 52 -40 80 -17 50 -45 100 -123 219 -21 32 -45 79 -53 103 -8 25
-30 62 -48 83 -18 22 -52 68 -77 104 -175 256 -392 473 -564 563 -78 41 -88
45 -235 82 -8 2 -75 4 -148 4 l-133 1 6 48 c3 26 13 65 20 87 16 44 39 141 60
255 8 41 19 84 24 95 5 11 13 30 16 43 4 14 12 21 20 18 36 -13 230 -28 319
-23 97 4 227 32 291 61 17 8 61 27 100 42 72 29 196 107 229 143 11 12 25 21
33 21 7 0 13 4 13 9 0 5 8 12 19 16 22 7 221 198 221 213 0 23 39 36 173 55
120 17 199 20 517 21 l375 1 44 30 c28 19 54 48 70 78 23 46 24 51 12 115 -7
37 -19 87 -26 112 -8 25 -33 122 -56 215 -22 94 -51 197 -64 230 -13 33 -31
98 -40 145 -9 47 -23 103 -30 125 -7 22 -16 53 -19 68 l-7 28 169 -7 c117 -5
175 -3 188 4 28 17 30 16 48 -35z m974 -414 c26 -9 34 -20 47 -62 9 -29 19
-76 22 -106 6 -50 5 -53 -13 -43 -10 5 -49 24 -86 41 -75 34 -78 40 -57 116
18 67 30 74 87 54z m72 -324 c-7 -9 -15 -13 -17 -11 -7 7 7 26 19 26 6 0 6 -6
-2 -15z m-30 -29 c0 -8 -7 -16 -15 -20 -12 -4 -13 -2 -2 14 14 24 17 25 17 6z
m30 -73 c0 -3 -7 -3 -15 1 -10 3 -15 -1 -15 -12 0 -14 -2 -15 -10 -2 -6 9 -5
17 2 21 11 7 38 1 38 -8z m35 6 c11 -16 1 -19 -13 -3 -7 8 -8 14 -3 14 5 0 13
-5 16 -11z m-21 -31 c-3 -4 -9 -8 -15 -8 -5 0 -9 4 -9 8 0 5 7 9 15 9 8 0 12
-4 9 -9z m-29 -18 c3 -5 1 -10 -4 -10 -6 0 -11 5 -11 10 0 6 2 10 4 10 3 0 8
-4 11 -10z m55 2 c0 -5 -7 -9 -15 -9 -8 0 -12 4 -9 9 3 4 9 8 15 8 5 0 9 -4 9
-8z m6 -49 c-4 -4 -12 -1 -19 7 -9 10 -9 11 1 6 7 -4 12 -2 13 6 0 11 2 11 6
0 3 -7 2 -16 -1 -19z m2404 -1633 c29 -57 40 -107 21 -95 -10 6 -91 17 -128
17 -28 1 -28 8 -3 59 22 43 54 79 70 79 5 0 23 -27 40 -60z m-53 -96 c-3 -3
-12 -4 -19 -1 -8 3 -5 6 6 6 11 1 17 -2 13 -5z m72 -57 c1 -5 -3 -5 -9 -2 -5
3 -10 16 -9 28 0 21 1 21 9 2 5 -11 9 -24 9 -28z m-422 -449 c-3 -8 -6 -5 -6
6 -1 11 2 17 5 13 3 -3 4 -12 1 -19z m701 -12 c16 -14 31 -26 36 -26 9 0 47
-43 82 -92 60 -84 71 -321 25 -507 -19 -76 -82 -215 -123 -274 -39 -55 -206
-120 -307 -119 -88 1 -200 31 -219 60 -35 54 -18 436 24 538 8 18 14 45 14 60
0 61 104 248 176 315 68 64 109 80 192 76 62 -4 77 -8 100 -31z m-737 -49
c-10 -9 -11 -8 -5 6 3 10 9 15 12 12 3 -3 0 -11 -7 -18z m44 13 c-3 -5 -11
-10 -16 -10 -6 0 -7 5 -4 10 3 6 11 10 16 10 6 0 7 -4 4 -10z m25 -20 c0 -5
-5 -10 -11 -10 -5 0 -7 5 -4 10 3 6 8 10 11 10 2 0 4 -4 4 -10z m-60 -15 c-7
-9 -15 -13 -19 -10 -3 3 1 10 9 15 21 14 24 12 10 -5z m40 -25 c0 -11 -7 -20
-15 -20 -18 0 -20 -17 -2 -23 7 -2 8 -8 3 -13 -5 -5 -11 -4 -13 4 -3 6 -18 12
-34 12 -27 0 -29 2 -18 21 7 14 17 19 30 16 12 -3 19 0 19 9 0 8 7 14 15 14 8
0 15 -9 15 -20z m-6896 -50 c30 -16 58 -41 83 -78 74 -105 131 -231 143 -310
5 -31 15 -89 24 -129 9 -40 18 -108 22 -153 5 -68 3 -89 -18 -146 -12 -36 -30
-69 -38 -74 -9 -5 -88 -5 -176 0 -141 7 -168 11 -216 33 -56 26 -118 81 -118
105 0 6 -4 12 -10 12 -5 0 -13 12 -16 28 -4 15 -11 32 -15 38 -5 6 -20 60 -35
120 -36 152 -34 323 5 389 3 6 6 16 7 23 8 47 95 136 156 159 48 18 147 10
202 -17z m6863 -26 c2 -5 -3 -19 -12 -29 -14 -20 -14 -20 -15 3 0 12 6 22 13
22 8 0 7 4 -3 11 -12 9 -12 10 -1 7 8 -3 16 -9 18 -14z m28 -34 c-9 -17 -20
-28 -25 -25 -5 3 1 22 12 42 26 43 37 29 13 -17z m-111 -88 c3 -5 -1 -9 -9 -9
-8 0 -12 4 -9 9 3 4 7 8 9 8 2 0 6 -4 9 -8z m51 -12 c3 -5 1 -10 -4 -10 -6 0
-11 5 -11 10 0 6 2 10 4 10 3 0 8 -4 11 -10z m-33 -32 c-7 -7 -12 -8 -12 -2 0
14 12 26 19 19 2 -3 -1 -11 -7 -17z m22 -35 c-7 -29 -34 -66 -34 -46 0 6 -9 9
-22 5 -21 -5 -21 -5 -2 14 16 17 20 18 25 4 7 -16 8 -14 24 35 8 26 16 16 9
-12z m-63 -99 c-5 -16 -10 -21 -10 -12 -1 18 10 51 15 45 2 -1 -1 -16 -5 -33z
m27 -29 c-1 -19 -5 -35 -10 -35 -9 0 -10 16 -2 48 9 32 14 27 12 -13z"/>
<path d="M5990 6536 c0 -8 -6 -17 -12 -19 -10 -4 -10 -6 -1 -6 7 -1 17 8 23
19 7 14 7 20 0 20 -5 0 -10 -6 -10 -14z"/>
<path d="M6020 5816 c0 -9 7 -16 16 -16 9 0 14 5 12 12 -6 18 -28 21 -28 4z"/>
<path d="M6180 5774 c0 -8 5 -12 10 -9 6 3 10 10 10 16 0 5 -4 9 -10 9 -5 0
-10 -7 -10 -16z"/>
<path d="M6241 5674 c0 -11 3 -14 6 -6 3 7 2 16 -1 19 -3 4 -6 -2 -5 -13z"/>
<path d="M3219 6218 c-20 -13 -26 -22 -22 -38 l6 -22 321 3 c177 2 331 0 342
-4 19 -7 22 -17 26 -82 3 -66 7 -78 31 -102 26 -27 30 -28 167 -31 129 -4 142
-3 174 18 24 14 39 33 46 58 16 57 12 143 -8 182 l-17 35 -519 0 c-470 0 -521
-2 -547 -17z m981 -123 c0 -33 -12 -46 -25 -25 -8 12 5 60 16 60 5 0 9 -16 9
-35z m-160 -11 c0 -31 -23 -28 -28 4 -2 15 2 22 12 22 11 0 16 -9 16 -26z"/>
<path d="M5565 2211 c-82 -30 -103 -39 -109 -50 -4 -5 -38 -27 -76 -48 -73
-39 -84 -57 -52 -86 25 -23 46 -21 101 7 25 14 74 36 107 50 98 40 208 116
191 132 -16 16 -113 13 -162 -5z"/>
<path d="M8690 980 c0 -5 5 -10 10 -10 6 0 10 5 10 10 0 6 -4 10 -10 10 -5 0
-10 -4 -10 -10z"/>
<path d="M1868 10218 c-15 -15 -16 -18 -3 -18 9 0 18 7 22 15 8 23 0 24 -19 3z"/>
<path d="M7456 10225 c-11 -8 -16 -15 -10 -15 5 0 18 7 28 15 11 8 16 15 10
15 -5 0 -18 -7 -28 -15z"/>
<path d="M1906 10201 c-3 -5 1 -11 9 -15 8 -3 15 -1 15 4 0 13 -18 22 -24 11z"/>
<path d="M7365 10200 c-8 -13 25 -13 45 0 12 8 9 10 -12 10 -15 0 -30 -4 -33
-10z"/>
<path d="M1820 10180 c-12 -8 -10 -10 8 -10 13 0 20 4 17 10 -7 12 -6 12 -25
0z"/>
<path d="M1875 10170 c3 -5 8 -10 11 -10 2 0 4 5 4 10 0 6 -5 10 -11 10 -5 0
-7 -4 -4 -10z"/>
<path d="M1787 10134 c-10 -13 -14 -24 -9 -24 13 0 35 27 30 39 -1 5 -11 -2
-21 -15z"/>
<path d="M1870 10136 c0 -8 -6 -16 -12 -19 -7 -2 -10 -8 -5 -12 4 -5 14 0 22
11 17 23 19 34 5 34 -5 0 -10 -6 -10 -14z"/>
<path d="M1766 10044 c-9 -24 -2 -26 12 -4 7 11 8 20 3 20 -5 0 -12 -7 -15
-16z"/>
<path d="M1705 9970 c-3 -5 1 -10 10 -10 9 0 13 5 10 10 -3 6 -8 10 -10 10 -2
0 -7 -4 -10 -10z"/>
<path d="M1655 9900 c-3 -5 -1 -10 4 -10 6 0 11 5 11 10 0 6 -2 10 -4 10 -3 0
-8 -4 -11 -10z"/>
<path d="M1665 9840 c4 -6 11 -8 16 -5 14 9 11 15 -7 15 -8 0 -12 -5 -9 -10z"/>
<path d="M5994 9572 c-18 -12 -34 -49 -29 -65 7 -16 53 -40 138 -68 102 -34
162 -77 296 -210 92 -92 110 -103 162 -94 35 6 39 10 39 35 0 20 -13 41 -47
74 -25 25 -50 46 -54 46 -5 0 -43 32 -86 70 -43 39 -83 70 -90 70 -6 0 -24 11
-40 24 -15 13 -72 46 -125 75 -92 48 -138 60 -164 43z"/>
<path d="M3955 9523 c-16 -9 -56 -35 -90 -58 -33 -23 -85 -59 -115 -79 -30
-20 -77 -57 -105 -82 -27 -24 -65 -57 -84 -72 -27 -23 -34 -36 -35 -68 -1 -38
0 -39 37 -42 35 -3 43 2 99 58 34 34 75 68 92 77 17 9 50 32 72 52 64 55 151
104 200 111 25 4 47 3 50 -2 7 -11 51 -10 75 2 19 11 25 43 13 75 -17 43 -148
61 -209 28z"/>
<path d="M9200 9445 c-152 -24 -154 -25 -184 -108 -14 -39 -32 -101 -40 -137
-9 -36 -29 -103 -47 -150 -17 -47 -34 -98 -39 -115 -4 -16 -21 -73 -37 -125
-17 -52 -36 -117 -42 -145 -13 -57 -63 -231 -92 -320 -28 -88 -26 -156 8 -196
30 -35 74 -57 134 -65 78 -11 94 -19 91 -44 -6 -52 47 -156 69 -136 2 2 32 6
67 9 34 4 66 9 71 11 9 6 75 17 101 18 8 0 44 6 80 14 98 20 205 38 300 49 30
3 80 10 110 15 30 6 100 17 155 26 191 30 290 60 302 91 3 8 -1 48 -11 87 -9
39 -21 107 -26 151 -15 121 -13 119 -74 112 -147 -17 -324 -38 -346 -43 -14
-3 -95 -16 -180 -29 -85 -13 -164 -26 -175 -28 -11 -3 -45 -8 -75 -12 -30 -4
-64 -9 -75 -12 -54 -12 -95 -15 -95 -7 0 5 14 47 31 94 32 93 84 260 92 300 2
14 26 84 51 155 76 210 94 268 102 309 4 22 18 67 30 100 34 84 32 92 -26 121
-56 28 -97 30 -230 10z m108 -227 c-21 -73 -43 -153 -48 -178 -5 -25 -35 -124
-68 -220 -33 -96 -67 -206 -76 -244 -23 -100 -116 -327 -146 -357 -34 -35
-111 -47 -146 -24 -21 14 -23 21 -18 58 7 55 40 168 69 237 24 58 27 72 77
270 29 118 63 226 128 400 15 41 33 93 39 115 10 37 15 42 63 57 29 9 78 17
109 17 l56 1 -39 -132z m765 -940 c9 -54 11 -85 5 -89 -6 -4 -40 -10 -77 -13
-37 -4 -130 -18 -207 -32 -76 -13 -184 -31 -239 -39 -55 -9 -113 -20 -130 -25
-58 -17 -375 -58 -375 -47 2 29 36 118 60 156 32 49 33 50 104 60 39 6 132 20
206 32 74 11 157 24 183 29 26 6 123 17 215 26 92 8 169 17 171 20 2 2 19 4
36 4 l33 0 15 -82z"/>
<path d="M5888 9364 c-13 -8 -31 -13 -41 -14 -23 0 -135 -47 -168 -71 -14 -10
-42 -49 -61 -86 -47 -90 -63 -193 -47 -312 14 -109 44 -233 70 -283 11 -21 17
-38 14 -38 -8 0 44 -100 70 -135 13 -16 33 -50 45 -75 23 -47 101 -139 230
-274 93 -97 274 -233 360 -271 36 -15 74 -34 85 -40 37 -23 213 -48 294 -42
98 8 119 12 161 29 19 8 38 15 43 16 49 9 134 81 170 145 61 105 70 188 38
347 -26 125 -32 144 -80 237 -22 43 -45 90 -50 105 -28 74 -266 323 -368 385
-32 19 -66 42 -75 51 -37 37 -297 211 -344 231 -11 5 -61 28 -110 51 -101 47
-197 65 -236 44z"/>
<path d="M4059 9319 c-37 -15 -77 -34 -90 -42 -13 -9 -42 -20 -65 -26 -22 -6
-61 -24 -85 -41 -24 -16 -47 -30 -52 -30 -17 0 -189 -123 -284 -202 -31 -27
-62 -48 -68 -48 -7 0 -34 -23 -61 -52 -72 -75 -87 -90 -122 -120 -17 -15 -41
-47 -53 -70 -12 -24 -30 -52 -40 -64 -30 -33 -98 -180 -121 -263 -47 -173 -48
-272 -1 -403 26 -72 32 -80 108 -142 44 -37 96 -70 115 -75 19 -5 58 -15 85
-23 75 -20 236 -15 317 10 71 22 163 65 173 81 3 6 33 25 67 43 34 18 84 53
111 78 124 111 287 282 306 317 11 22 27 46 36 53 26 21 85 117 117 190 16 36
38 83 48 105 17 38 40 111 46 145 1 8 7 42 14 75 7 35 10 107 8 175 -4 102 -8
122 -33 173 -33 67 -82 115 -157 154 -47 24 -65 27 -153 28 -88 1 -108 -2
-166 -26z"/>
<path d="M884 8381 c-12 -5 -31 -23 -43 -39 -21 -30 -21 -37 -21 -480 0 -380
-2 -451 -14 -462 -11 -9 -112 -11 -410 -8 l-396 4 0 -53 0 -53 128 0 c70 0
253 -3 407 -7 307 -7 339 -3 372 45 17 25 18 62 23 482 l5 455 95 0 95 0 0
-588 0 -588 -562 1 -563 0 0 -60 0 -60 579 0 c344 0 590 4 605 10 57 21 55 0
57 690 0 398 -3 644 -9 660 -19 50 -35 55 -186 57 -78 2 -151 -1 -162 -6z"/>
<path d="M5295 7970 c-66 -4 -251 -8 -412 -9 -160 0 -303 -5 -317 -11 -18 -6
-27 -19 -32 -44 -5 -31 0 -46 47 -118 29 -46 62 -90 73 -98 12 -8 49 -42 84
-75 52 -49 75 -63 125 -77 34 -10 87 -25 117 -34 107 -31 248 -12 346 47 52
31 157 151 189 215 17 32 35 66 42 74 21 28 31 85 18 103 -27 38 -51 40 -280
27z"/>
<path d="M9180 6847 c-6 -6 -34 -12 -109 -23 -25 -4 -77 -21 -116 -39 -38 -17
-86 -38 -105 -45 -40 -16 -171 -121 -221 -178 -72 -82 -126 -170 -154 -247
-15 -44 -32 -85 -37 -91 -27 -36 -49 -287 -33 -394 8 -55 33 -156 45 -178 18
-36 50 -112 50 -121 0 -13 40 -83 55 -96 6 -5 33 -37 59 -70 90 -113 295 -247
411 -269 17 -3 48 -11 70 -17 43 -13 298 -18 355 -7 128 25 281 93 376 166 98
77 112 90 147 138 15 22 42 57 59 79 36 47 79 138 114 244 34 103 39 137 37
271 -2 181 -60 367 -156 502 -52 73 -169 188 -237 233 -56 38 -228 114 -272
120 -18 3 -44 8 -58 11 -35 8 -274 17 -280 11z m318 -134 c121 -29 330 -164
401 -258 57 -75 139 -252 157 -336 24 -112 14 -311 -21 -402 -42 -113 -112
-223 -199 -313 -70 -74 -93 -91 -181 -134 -55 -26 -131 -58 -170 -70 -93 -29
-247 -37 -335 -17 -65 15 -176 53 -195 67 -5 4 -27 13 -49 20 -23 7 -65 38
-107 79 -38 36 -81 76 -96 87 -26 20 -110 174 -147 267 -21 53 -46 189 -46
251 0 51 21 185 38 241 5 17 31 72 57 124 48 97 162 237 215 265 49 27 85 47
115 66 127 82 374 110 563 63z"/>
<path d="M9130 6517 c-120 -41 -182 -78 -261 -158 -41 -42 -81 -92 -88 -110
-7 -19 -17 -43 -21 -54 -72 -182 -72 -309 0 -480 35 -83 49 -103 123 -176 81
-79 99 -91 212 -132 70 -25 94 -29 195 -30 80 0 129 4 160 15 25 9 58 19 74
22 37 9 109 58 180 123 43 40 68 75 107 152 81 160 89 297 30 461 -50 136
-118 220 -241 296 -100 62 -177 85 -300 90 -89 3 -115 0 -170 -19z m356 -137
c90 -44 182 -134 230 -223 36 -69 38 -77 41 -177 1 -70 -3 -122 -12 -153 -19
-64 -80 -161 -135 -215 -44 -43 -155 -103 -217 -116 -63 -14 -206 -9 -247 8
-73 31 -198 110 -206 131 -4 11 -20 37 -34 58 -65 94 -78 137 -83 257 -2 67 2
97 19 145 39 110 113 205 201 258 92 57 103 61 182 66 115 8 187 -2 261 -39z"/>
<path d="M1403 5570 c-24 -10 -32 -29 -38 -92 -2 -24 -6 -54 -10 -68 -3 -14
-8 -50 -10 -80 -3 -30 -8 -71 -11 -90 -11 -76 -18 -130 -35 -270 -12 -106 -54
-426 -65 -495 -2 -16 -9 -66 -14 -110 -17 -133 -19 -146 -25 -164 -3 -9 -6
-36 -7 -59 -1 -24 -5 -45 -9 -48 -8 -5 6 -63 19 -76 9 -9 19 -11 112 -28 72
-12 246 -17 256 -7 5 4 11 38 15 75 4 37 10 78 14 92 3 14 8 39 10 55 2 17 7
46 10 65 3 19 8 51 10 70 3 19 7 46 10 60 3 14 7 39 10 55 3 17 7 41 10 55 3
14 7 60 10 104 3 43 7 82 10 86 4 7 7 24 20 150 4 36 10 73 14 82 5 13 67 -44
276 -254 149 -149 289 -283 313 -299 42 -26 75 -30 108 -11 28 16 125 116 139
142 8 16 26 45 39 65 28 40 25 63 -12 115 -26 36 -174 191 -227 238 -16 15
-50 49 -75 76 -25 26 -163 167 -308 312 l-263 264 -137 -1 c-75 0 -147 -4
-159 -9z m609 -474 c200 -200 388 -390 420 -422 l56 -59 -63 -69 -63 -69 -128
124 c-181 175 -407 404 -466 471 -50 57 -126 105 -152 95 -18 -7 -25 -47 -37
-222 -5 -82 -16 -199 -24 -260 -7 -60 -16 -137 -20 -170 -6 -59 -36 -244 -55
-338 -6 -27 -10 -60 -10 -74 0 -25 0 -26 -62 -19 -105 12 -108 13 -108 55 0
38 57 446 65 470 3 8 10 46 15 85 5 39 14 98 20 131 14 83 57 441 66 548 l6
87 89 0 88 0 363 -364z"/>
<path d="M10084 5187 c-30 -16 -31 -22 -19 -120 7 -51 10 -159 8 -244 l-5
-152 26 -26 c21 -21 34 -25 86 -25 l60 0 0 54 c0 49 -2 54 -25 60 l-25 6 2
173 c3 170 3 172 26 175 19 3 22 9 22 53 l0 49 -47 1 c-27 1 -58 3 -69 4 -12
1 -30 -2 -40 -8z"/>
<path d="M9392 4473 c-4 -10 -7 -27 -6 -38 1 -11 3 -36 5 -55 1 -19 7 -44 12
-54 10 -21 11 -30 28 -221 8 -97 8 -150 -1 -210 -6 -44 -11 -82 -10 -85 1 -3
-8 -30 -20 -60 -12 -30 -23 -62 -25 -70 -4 -20 -42 -115 -55 -137 -5 -10 -27
-56 -48 -103 -44 -97 -116 -183 -199 -236 -29 -18 -53 -38 -53 -43 0 -5 21
-26 46 -46 32 -26 87 -53 178 -86 72 -27 140 -49 152 -49 11 0 29 9 40 21 10
11 40 37 67 56 28 21 58 54 72 82 13 25 37 61 53 80 36 41 124 201 142 256 7
22 19 50 26 62 8 13 26 60 40 105 13 46 31 104 39 130 8 26 15 73 15 106 0
117 -67 162 -242 162 -111 0 -103 -7 -112 100 -5 60 -8 75 -23 135 -6 22 -14
71 -18 110 -3 42 -12 77 -22 87 -21 23 -70 23 -81 1z m354 -551 c20 -14 24
-43 13 -117 -14 -102 -58 -225 -126 -350 -78 -144 -110 -195 -142 -225 -20
-19 -52 -54 -70 -78 -18 -23 -41 -47 -50 -52 -21 -11 -105 13 -140 39 l-22 17
25 27 c118 127 228 370 286 627 12 52 24 101 26 108 4 13 180 18 200 4z"/>
<path d="M9067 4242 c-23 -25 -21 -43 6 -94 19 -37 22 -58 22 -153 0 -117 -1
-119 -64 -224 -33 -54 -37 -68 -29 -87 12 -27 39 -38 66 -29 31 9 82 90 110
173 37 110 37 212 -2 307 -30 73 -63 124 -82 124 -6 1 -18 -7 -27 -17z"/>
<path d="M930 3011 c-47 -20 -115 -52 -151 -72 -36 -20 -76 -40 -89 -44 -29
-9 -260 -132 -274 -146 -6 -5 -19 -9 -30 -9 -10 0 -54 -20 -97 -45 -43 -25
-80 -45 -83 -45 -3 0 -28 -14 -55 -30 -26 -17 -64 -35 -82 -41 -58 -20 -69
-36 -69 -101 0 -32 4 -58 8 -58 5 0 107 50 228 112 120 61 289 147 374 191 85
43 178 91 205 107 28 16 59 29 70 29 11 1 35 10 53 21 18 11 37 20 42 20 5 0
26 -25 45 -56 39 -60 59 -105 47 -102 -4 1 -24 -6 -46 -15 -21 -9 -40 -17 -43
-17 -2 0 -19 -10 -36 -23 -39 -29 -150 -86 -237 -122 -35 -15 -94 -43 -130
-64 -36 -20 -112 -58 -170 -84 -58 -27 -122 -63 -143 -81 l-37 -33 25 -44 c14
-24 32 -66 41 -94 9 -27 26 -63 38 -80 12 -16 28 -43 36 -60 8 -16 32 -54 53
-84 20 -30 37 -60 37 -67 0 -14 18 -49 46 -89 25 -36 78 -130 115 -205 l27
-55 -52 -37 c-29 -21 -58 -35 -68 -32 -9 3 -19 0 -23 -6 -11 -18 -21 -11 -34
28 -15 40 -77 148 -99 171 -7 7 -31 48 -52 90 -47 91 -79 145 -130 226 -21 33
-41 71 -45 85 -4 14 -22 46 -41 71 -18 25 -49 79 -69 119 l-35 74 0 -118 c0
-115 1 -120 32 -175 18 -31 47 -77 65 -102 18 -26 33 -53 33 -60 0 -8 14 -36
30 -64 16 -27 40 -71 54 -96 13 -25 32 -52 41 -59 10 -8 34 -52 56 -97 21 -46
52 -100 68 -121 17 -20 31 -41 31 -48 0 -6 10 -20 23 -32 42 -40 101 -26 218
52 42 28 84 56 94 61 12 7 19 27 22 61 5 51 5 51 -58 163 -8 16 -31 52 -50 82
-18 29 -39 67 -45 84 -5 17 -40 78 -76 136 -36 57 -73 120 -81 140 -8 19 -26
54 -41 77 -27 43 -34 82 -15 82 15 0 183 84 218 109 15 11 40 23 57 27 30 7
248 117 274 138 8 7 35 20 60 29 25 9 80 37 123 62 93 55 95 62 34 172 -23 43
-49 94 -56 113 -18 43 -72 120 -86 119 -5 -1 -48 -17 -95 -38z"/>
<path d="M10080 80 l0 -80 80 0 80 0 0 80 0 80 -80 0 -80 0 0 -80z"/>
</g>
</svg>
